<svg xmlns="http://www.w3.org/2000/svg" viewBox="375 90 225 225" fill="#D4AF37">
  <g>
    <path d="M382.051,306.561V98.285h208.276c0.724,0,1.311-0.587,1.311-1.312c0-0.724-0.587-1.312-1.311-1.312l-209.588,0l-1.312,1.312v209.588c0,0.724,0.587,1.312,1.312,1.312C381.464,307.873,382.051,307.285,382.051,306.561L382.051,306.561z"/>
    <path d="M388.431,145.633c1.582-1.583,3.451-2.892,5.547-3.851l0.534-0.244c4.077-2.006,10.206-3.403,16.361-3.721c16.124-0.72,20.958-11.19,21.006-11.294c0.023-0.052,0.049-0.102,0.078-0.151c2.206-3.665,1.001-8.467-2.685-10.703c-2.791-1.693-6.436-0.827-8.134,1.933c-0.619,1.009-0.76,2.34-0.378,3.558c0.566,1.806,1.747,2.943,3.24,3.122c1.284,0.154,2.545-0.462,3.206-1.561c0.393-0.651,1.235-0.859,1.884-0.469c0.649,0.391,0.859,1.234,0.469,1.884c-1.223,2.025-3.528,3.153-5.885,2.872c-2.575-0.308-4.644-2.187-5.535-5.027c-0.616-1.965-0.37-4.138,0.659-5.815c2.484-4.041,7.819-5.321,11.898-2.845c4.954,3.005,6.582,9.449,3.653,14.399c-0.547,1.159-6.132,12.069-23.344,12.839c-5.706,0.294-11.579,1.62-15.316,3.458l-0.569,0.261c-5.034,2.305-8.542,6.984-9.381,12.521c-0.798,5.274,0.968,10.288,4.848,13.756c0.303,0.271,0.618,0.533,0.944,0.786c2.922,2.267,6.648,3.122,10.492,2.406c5.491-1.022,9.259-4.177,10.339-8.658c0.976-4.046-0.534-8.313-3.848-10.871c-1.702-1.314-3.957-1.841-6.186-1.448c-3.366,0.593-5.676,2.477-6.335,5.165c-0.593,2.41,0.302,4.953,2.281,6.479c1.009,0.778,2.257,1.117,3.514,0.953c1.24-0.161,2.346-0.79,3.099-1.782c0.481-0.609,1.325-0.714,1.925-0.253c0.601,0.462,0.714,1.324,0.253,1.925c-1.205,1.571-2.954,2.576-4.923,2.832c-1.984,0.258-3.953-0.275-5.544-1.502c-2.839-2.189-4.122-5.843-3.27-9.308c0.919-3.738,4.105-6.434,8.524-7.214c2.988-0.527,6.028,0.194,8.34,1.979c4.17,3.219,6.069,8.592,4.84,13.689c-1.324,5.497-6,9.503-12.506,10.714c-4.625,0.861-9.128-0.182-12.679-2.937c-0.376-0.293-0.74-0.596-1.09-0.909c-4.582-4.096-6.672-10.006-5.733-16.213C383.652,152.234,385.573,148.491,388.431,145.633z"/>
    <path d="M428.627,105.437c2.857-2.858,6.601-4.778,10.756-5.407c6.207-0.939,12.117,1.15,16.213,5.733c0.313,0.35,0.615,0.713,0.907,1.089c2.756,3.552,3.799,8.055,2.938,12.68c-1.211,6.505-5.215,11.181-10.714,12.506c-5.097,1.229-10.47-0.67-13.688-4.839c-1.785-2.313-2.506-5.353-1.979-8.341c0.779-4.417,3.476-7.604,7.213-8.524c3.465-0.852,7.12,0.431,9.308,3.27c1.227,1.591,1.76,3.56,1.502,5.544c-0.257,1.968-1.26,3.715-2.832,4.923c-0.602,0.461-1.463,0.349-1.925-0.253c-0.462-0.601-0.359-1.456,0.253-1.925c0.992-0.753,1.621-1.859,1.782-3.099c0.163-1.257-0.175-2.505-0.953-3.514c-1.526-1.979-4.069-2.873-6.479-2.28c-2.69,0.661-4.571,2.97-5.165,6.335c-0.393,2.229,0.135,4.484,1.449,6.187c2.558,3.313,6.825,4.823,10.87,3.848c4.482-1.08,7.637-4.851,8.658-10.34c0.716-3.844-0.139-7.57-2.407-10.493c-0.252-0.325-0.515-0.64-0.785-0.943c-3.468-3.879-8.481-5.646-13.756-4.848c-5.536,0.838-10.214,4.345-12.521,9.381l-0.244,0.534c-1.855,3.773-3.181,9.646-3.475,15.361c-0.769,17.203-11.679,22.79-12.839,23.335c-4.949,2.929-11.393,1.3-14.398-3.654c-2.474-4.079-1.192-9.421,2.845-11.897c1.677-1.029,3.851-1.276,5.815-0.659c2.84,0.891,4.719,2.96,5.027,5.535c0.281,2.356-0.847,4.666-2.872,5.885c-0.65,0.391-1.493,0.181-1.884-0.469c-0.391-0.649-0.184-1.491,0.469-1.884c1.098-0.66,1.714-1.921,1.561-3.206c-0.179-1.493-1.316-2.674-3.122-3.24c-1.217-0.382-2.548-0.241-3.559,0.379c-2.764,1.694-3.626,5.342-1.933,8.133c2.237,3.686,7.038,4.891,10.703,2.685c0.048-0.029,0.098-0.055,0.151-0.078c0.427-0.193,10.579-4.973,11.294-20.996c0.318-6.164,1.715-12.294,3.737-16.406l0.228-0.499C425.734,108.888,427.045,107.019,428.627,105.437z"/>
    <path d="M424.777,141.784c0.396-0.397,0.995-0.512,1.511-0.291c0.434,0.185,10.686,4.622,15.625,10.951c2.362,3.024,2.033,5.764,0.66,7.136c-1.373,1.373-4.112,1.702-7.137-0.659c-6.329-4.94-10.766-15.192-10.951-15.626C424.265,142.779,424.38,142.181,424.777,141.784z M440.632,157.639c0.517-0.518,0.38-1.889-0.883-3.506c0,0,0,0-0.001-0.001c-2.792-3.577-7.663-6.586-10.992-8.369c1.785,3.331,4.797,8.205,8.369,10.994C438.744,158.019,440.115,158.157,440.632,157.639z M440.831,153.288l-0.011,0.011L440.831,153.288z"/>
    <path d="M419.758,148.548c0.254-0.254,0.601-0.402,0.969-0.402c0.468-0.001,0.904,0.236,1.157,0.63c0.31,0.481,3.005,4.809,2.315,8.38l0,0c-0.328,1.704-1.701,2.851-3.414,2.858c-1.702,0.006-3.128-1.172-3.467-2.864c-0.718-3.578,1.948-7.891,2.255-8.371C419.626,148.695,419.689,148.618,419.758,148.548z M422.85,156.897l-1.348-0.261c0.236-1.222-0.212-2.797-0.765-4.115c-0.539,1.312-0.973,2.876-0.729,4.089c0.12,0.596,0.576,0.659,0.767,0.658c0.225,0,0.62-0.083,0.728-0.633L422.85,156.897z"/>
    <path d="M431.542,136.765c0.07-0.069,0.147-0.132,0.232-0.186c0.48-0.307,4.793-2.973,8.371-2.255c1.692,0.34,2.87,1.765,2.864,3.467c-0.006,1.713-1.154,3.084-2.858,3.414l0,0c-3.571,0.69-7.899-2.005-8.38-2.315c-0.394-0.253-0.631-0.689-0.63-1.157C431.14,137.366,431.288,137.019,431.542,136.765z M440.066,138.297c0.163-0.163,0.196-0.373,0.196-0.515c0.001-0.191-0.062-0.647-0.658-0.767c-1.219-0.244-2.781,0.188-4.089,0.726c1.321,0.553,2.898,1.004,4.115,0.768C439.832,138.47,439.972,138.392,440.066,138.297z"/>
    <polygon points="400.828,275.458 406.066,270.189 411.303,275.458 406.066,280.727"/>
    <polygon points="400.828,264.921 406.066,259.653 411.303,264.921 406.066,270.19"/>
    <polygon points="400.828,207.667 406.066,202.398 411.303,207.667 406.066,212.936"/>
    <polygon points="400.828,197.13 406.066,191.861 411.303,197.13 406.066,202.399"/>
    <path d="M406.066,163.194c-0.724,0-1.312,0.587-1.312,1.312v126.427c0,0.724,0.587,1.312,1.312,1.312c0.724,0,1.312-0.587,1.312-1.312V164.505C407.378,163.781,406.79,163.194,406.066,163.194z"/>
    <polygon points="558.141,128.356 552.872,123.118 558.141,117.881 563.41,123.118"/>
    <polygon points="547.605,128.356 542.336,123.118 547.605,117.881 552.873,123.118"/>
    <polygon points="490.35,128.356 485.081,123.118 490.35,117.881 495.619,123.118"/>
    <polygon points="479.813,128.356 474.544,123.118 479.813,117.881 485.082,123.118"/>
    <path d="M573.616,121.807H447.189c-0.725,0-1.312,0.587-1.312,1.312c0,0.724,0.587,1.312,1.312,1.312h126.427c0.724,0,1.312-0.587,1.312-1.312C574.927,122.394,574.34,121.807,573.616,121.807z"/>
    <path d="M392.578,132.912c-1.57-1.57-2.581-3.637-2.827-5.903l-0.031-0.274c-0.303-2.21-0.012-5.287,0.783-8.193c1.608-5.712-0.607-9.011-1.427-9.986c0.493,0.993,0.518,2.179,0.03,3.21c-0.664,1.402-2.09,2.22-3.818,2.189c-1.202-0.02-2.382-0.589-3.113-1.457c-1.725-2.057-1.461-5.154,0.587-6.904c1.176-1.004,2.672-1.492,4.21-1.373c1.516,0.116,2.9,0.817,3.893,1.947c0.617,0.593,4.743,5.072,2.467,13.159c-0.684,2.496-0.953,5.199-0.7,7.047l0.035,0.314c0.256,2.34,1.669,4.376,3.781,5.447c1.977,1.004,4.18,0.964,6.045-0.11c0.156-0.089,0.304-0.182,0.45-0.279c1.24-0.832,2.046-2.172,2.264-3.766c0.311-2.29-0.411-4.16-1.972-5.131c-1.383-0.859-3.152-0.823-4.507,0.093c-0.646,0.438-1.087,1.164-1.208,1.995c-0.186,1.266,0.184,2.29,1.002,2.805c0.71,0.446,1.62,0.428,2.319-0.044c0.643-0.437,0.817-1.312,0.386-1.951c-0.453-0.672-0.275-1.584,0.398-2.038c0.673-0.454,1.585-0.275,2.038,0.397c1.334,1.98,0.807,4.682-1.177,6.023c-1.662,1.124-3.83,1.164-5.524,0.1c-1.829-1.15-2.702-3.283-2.347-5.716c0.24-1.646,1.141-3.105,2.47-4.003c2.314-1.564,5.336-1.623,7.7-0.155c2.559,1.592,3.801,4.589,3.332,8.022c-0.326,2.401-1.618,4.52-3.542,5.813c-0.21,0.139-0.414,0.268-0.621,0.386c-2.736,1.574-5.958,1.641-8.835,0.178C394.165,134.269,393.31,133.644,392.578,132.912z M387.456,107.294c-0.225-0.077-0.462-0.126-0.707-0.145c-0.759-0.059-1.497,0.183-2.078,0.679c-0.828,0.707-0.938,1.956-0.243,2.784c0.198,0.238,0.554,0.401,0.915,0.408c0.556,0.01,0.951-0.17,1.11-0.508c0.125-0.265,0.084-0.577-0.103-0.796c-0.526-0.617-0.453-1.545,0.165-2.071C386.788,107.412,387.123,107.297,387.456,107.294z"/>
    <path d="M388.516,107.968c-0.97-0.97-1.556-2.24-1.663-3.626c-0.119-1.538,0.369-3.034,1.373-4.21c1.75-2.048,4.847-2.312,6.904-0.587c0.894,0.742,1.437,1.911,1.457,3.114c0.031,1.727-0.787,3.153-2.189,3.817c-1.032,0.488-2.218,0.462-3.212-0.031c0.961,0.809,4.26,3.04,9.978,1.431c2.916-0.798,5.993-1.089,8.24-0.782l0.235,0.025c3.325,0.362,6.22,2.367,7.746,5.37c1.461,2.878,1.395,6.1-0.182,8.841c-0.116,0.203-0.244,0.406-0.377,0.608c-1.299,1.932-3.417,3.223-5.818,3.549c-3.436,0.469-6.432-0.773-8.022-3.332c-1.469-2.364-1.408-5.387,0.155-7.701c0.898-1.33,2.357-2.229,4.003-2.47c2.434-0.355,4.564,0.52,5.716,2.347c1.064,1.694,1.025,3.863-0.1,5.524c-1.341,1.984-4.044,2.511-6.024,1.177c-0.673-0.453-0.851-1.366-0.397-2.038c0.454-0.673,1.366-0.851,2.038-0.397c0.64,0.431,1.515,0.257,1.952-0.386c0.472-0.699,0.489-1.609,0.044-2.319c-0.516-0.817-1.537-1.186-2.805-1.002c-0.831,0.121-1.557,0.562-1.994,1.208c-0.915,1.356-0.951,3.125-0.093,4.508c0.976,1.563,2.843,2.284,5.132,1.972c1.594-0.217,2.934-1.023,3.772-2.271c0.092-0.139,0.186-0.287,0.272-0.438c1.077-1.87,1.116-4.073,0.113-6.05c-1.075-2.115-3.11-3.527-5.446-3.781l-0.275-0.029c-1.888-0.259-4.592,0.011-7.097,0.697c-8.076,2.272-12.55-1.834-13.15-2.471C388.702,108.148,388.608,108.06,388.516,107.968z M393.305,101.852c-0.019-0.019-0.04-0.038-0.061-0.056c-0.828-0.695-2.078-0.585-2.784,0.243c-0.496,0.581-0.737,1.318-0.678,2.077c0.018,0.243,0.067,0.48,0.146,0.706c0.003-0.333,0.117-0.667,0.35-0.94c0.526-0.618,1.453-0.691,2.071-0.165c0.219,0.187,0.531,0.227,0.796,0.103c0.338-0.159,0.517-0.554,0.507-1.11C393.645,102.382,393.515,102.062,393.305,101.852z"/>
  </g>
</svg>
