<svg xmlns="http://www.w3.org/2000/svg" viewBox="218 1207 520 30" fill="#D4AF37">
  <g>
    <g>
      <rect x="224.024" y="1220.584" width="494.436" height="1.814"/>
    </g>
    <g>
      <path d="M474.684,1214.753l-3.442-5.268l-3.442,5.268c-0.726,1.111-0.586,2.595,0.334,3.541l3.108,3.197l3.108-3.197C475.27,1217.347,475.41,1215.864,474.684,1214.753z"/>
      <path d="M467.8,1228.229l3.442,5.268l3.442-5.268c0.726-1.111,0.586-2.595-0.334-3.541l-3.108-3.197l-3.108,3.197C467.214,1225.634,467.074,1227.118,467.8,1228.229z"/>
      <path d="M458.83,1215.794l-4.912,5.052l-2.551-2.634c-0.583-0.602-1.402-0.525-1.92,0.18c-0.939,1.279-0.039,3.098,1.532,3.098c-1.571,0-2.471,1.818-1.532,3.098v0c0.517,0.705,1.337,0.781,1.92,0.18l2.551-2.634l4.912,5.052c1.26,1.296,3.256,1.437,4.677,0.33l7.735-6.027l-7.735-6.026C462.087,1214.357,460.09,1214.498,458.83,1215.794z"/>
      <path d="M491.516,1221.491c1.683,0,2.534-2.059,1.353-3.277c-0.583-0.602-1.402-0.525-1.919,0.18l-2.052,2.796l-5.245-5.395c-1.26-1.296-3.256-1.437-4.677-0.33l-7.735,6.026l7.735,6.027c1.42,1.107,3.417,0.966,4.677-0.33l5.245-5.395l2.052,2.797c0.517,0.705,1.337,0.781,1.919,0.18C494.049,1223.55,493.199,1221.491,491.516,1221.491z"/>
    </g>
    <g>
      <path d="M536.279,1218.184l-1.689-2.585l-1.689,2.585c-0.356,0.545-0.287,1.273,0.164,1.738l1.525,1.568l1.525-1.568C536.566,1219.458,536.635,1218.729,536.279,1218.184z"/>
      <path d="M532.901,1224.797l1.689,2.585l1.689-2.585c0.356-0.545,0.287-1.273-0.164-1.738l-1.525-1.569l-1.525,1.569C532.614,1223.524,532.545,1224.252,532.901,1224.797z"/>
      <path d="M540.68,1218.696c-0.618-0.636-1.598-0.705-2.295-0.162l-3.795,2.957l3.795,2.957c0.697,0.543,1.677,0.474,2.295-0.162l2.717-2.795L540.68,1218.696z"/>
      <path d="M528.5,1218.696l-2.717,2.795l2.717,2.795c0.618,0.636,1.598,0.705,2.295,0.162l3.795-2.957l-3.795-2.957C530.098,1217.99,529.118,1218.06,528.5,1218.696z"/>
      <path d="M409.583,1218.184l-1.689-2.585l-1.689,2.585c-0.356,0.545-0.287,1.273,0.164,1.738l1.525,1.568l1.525-1.568C409.87,1219.458,409.939,1218.729,409.583,1218.184z"/>
      <path d="M406.205,1224.797l1.689,2.585l1.689-2.585c0.356-0.545,0.287-1.273-0.164-1.738l-1.525-1.569l-1.525,1.569C405.917,1223.524,405.849,1224.252,406.205,1224.797z"/>
      <path d="M411.689,1218.533l-3.795,2.957l3.795,2.957c0.697,0.543,1.676,0.474,2.295-0.162l2.717-2.795l-2.717-2.795C413.365,1218.06,412.386,1217.99,411.689,1218.533z"/>
      <path d="M401.804,1218.696l-2.717,2.795l2.717,2.795c0.618,0.636,1.598,0.705,2.295,0.162l3.795-2.957l-3.795-2.957C403.401,1217.99,402.422,1218.06,401.804,1218.696z"/>
    </g>
  </g>
  <g>
    <path d="M719.602,1221.808l4.866-6.632c1.107-1.509,2.861-1.673,4.109-0.385c2.526,2.608,0.706,7.016-2.897,7.016H719.602z"/>
    <path d="M719.602,1221.808l4.866,6.632c1.107,1.509,2.861,1.673,4.109,0.385c2.526-2.608,0.706-7.016-2.897-7.016H719.602z"/>
  </g>
  <g>
    <path d="M231.398,1221.808l-4.866-6.632c-1.107-1.509-2.861-1.673-4.109-0.385c-2.526,2.608-0.706,7.016,2.897,7.016H231.398z"/>
    <path d="M231.398,1221.808l-4.866,6.632c-1.107,1.509-2.861,1.673-4.109,0.385c-2.526-2.608-0.706-7.016,2.897-7.016H231.398z"/>
  </g>
</svg>
